<svg width="383" height="140" viewBox="0 0 383 140" fill="none" xmlns="http://www.w3.org/2000/svg">
<path d="M15.4737 78.3409C15.781 83.8271 17.0058 89.2297 19.1089 94.3188C21.5619 100.255 25.1567 105.649 29.689 110.192C34.2211 114.734 39.6024 118.336 45.5231 120.794C51.4441 123.253 57.7906 124.518 64.1993 124.518C70.6079 124.518 76.9545 123.253 82.8755 120.794C88.7962 118.336 94.1774 114.734 98.7096 110.192C103.242 105.649 106.837 100.255 109.29 94.3188C111.393 89.2297 112.618 83.8271 112.925 78.3409H128.399C128.079 85.861 126.449 93.2745 123.571 100.241C120.341 108.054 115.608 115.154 109.641 121.135C103.674 127.116 96.5893 131.86 88.7925 135.097C80.9959 138.334 72.6388 140 64.1993 140C55.7597 140 47.4027 138.334 39.6061 135.097C31.8093 131.86 24.7245 127.116 18.7576 121.135C12.7907 115.154 8.05709 108.054 4.82805 100.241C1.94909 93.2745 0.319736 85.861 0 78.3409H15.4737Z" fill="#F4540C"/>
<path fill-rule="evenodd" clip-rule="evenodd" d="M65.6633 0.0159505L65.7808 0.0193685C73.6814 0.214291 81.4834 1.86808 88.7925 4.9025C96.5893 8.13947 103.674 12.8843 109.641 18.8649C115.608 24.8455 120.341 31.9456 123.571 39.7589C126.449 46.7254 128.079 54.1389 128.399 61.659H0C0.319735 54.1389 1.94909 46.7254 4.82805 39.7589C8.05709 31.9456 12.7907 24.8455 18.7576 18.8649C24.7245 12.8843 31.8093 8.13947 39.6061 4.9025C47.3974 1.66788 55.7486 0.0022343 64.1824 0L65.6633 0.0159505ZM64.1993 15.4936C57.7928 15.4936 51.4481 16.7585 45.5287 19.2158C39.6094 21.6734 34.2291 25.2769 29.698 29.8183C26.3047 33.2196 23.4392 37.0985 21.184 41.3221L20.7412 42.1709L18.7078 46.1653H109.691L107.657 42.1709C105.339 37.6175 102.32 33.4463 98.7005 29.8183C94.1695 25.2769 88.7892 21.6734 82.8699 19.2158C76.9505 16.7585 70.6058 15.4936 64.1993 15.4936Z" fill="#F4540C"/>
<path d="M168.367 84.0799C172.723 84.0799 176.244 85.0754 178.912 87.086C181.634 89.0997 183.166 91.9216 183.512 95.5336L183.532 95.7489H176.152L176.125 95.5847C175.842 93.8548 175.019 92.5438 173.657 91.636L173.651 91.6315C172.334 90.6745 170.506 90.1847 168.148 90.1847C165.931 90.1847 164.249 90.602 163.079 91.4117L163.077 91.413C161.965 92.1675 161.413 93.2189 161.413 94.5884C161.413 95.7188 161.827 96.6541 162.66 97.4079C163.55 98.1695 165.023 98.8275 167.102 99.3685L173.228 100.926C176.801 101.822 179.513 103.296 181.346 105.361L181.515 105.551C183.236 107.53 184.096 109.913 184.096 112.69C184.096 116.162 182.755 118.894 180.077 120.861L180.076 120.861C177.906 122.484 175.019 123.427 171.429 123.704L170.871 125.675C173.071 126.178 174.679 126.992 175.661 128.141C176.712 129.362 177.24 130.768 177.24 132.349C177.24 134.39 176.408 136.005 174.755 137.179L174.756 137.18C173.155 138.401 170.97 139 168.221 139C165.518 139 163.309 138.375 161.614 137.107C159.961 135.884 159.083 134.196 158.983 132.062L158.973 131.857H164.455L164.475 132.03C164.564 132.802 164.96 133.365 165.682 133.732C166.429 134.112 167.298 134.305 168.294 134.305C169.19 134.305 169.957 134.113 170.604 133.737L170.608 133.734L170.613 133.732C170.931 133.571 171.157 133.375 171.304 133.15C171.451 132.926 171.527 132.661 171.527 132.349C171.527 131.654 171.128 131.041 170.241 130.518C169.807 130.286 169.157 130.093 168.28 129.947C167.404 129.8 166.312 129.702 165.004 129.653L164.764 129.644L166.278 123.659C162.681 123.308 159.713 122.255 157.383 120.488C154.466 118.275 152.813 115.157 152.42 111.151L152.399 110.935H159.78L159.806 111.102C160.139 113.229 161.085 114.862 162.641 116.015L162.95 116.216C164.528 117.191 166.62 117.686 169.242 117.686C171.703 117.686 173.555 117.244 174.823 116.385C176.081 115.532 176.706 114.332 176.706 112.764C176.706 111.625 176.335 110.687 175.595 109.935L175.591 109.931L175.587 109.926C174.9 109.134 173.494 108.453 171.313 107.91L165.332 106.501L165.33 106.5C161.567 105.556 158.735 104.159 156.853 102.295L156.849 102.292C155.014 100.374 154.096 98.0245 154.096 95.2556C154.096 91.7877 155.36 89.0571 157.892 87.0879C160.464 85.0749 163.964 84.0799 168.367 84.0799ZM170.152 130.256C170.089 130.227 170.023 130.199 169.953 130.171C170.023 130.199 170.089 130.227 170.152 130.256ZM169.288 129.959C169.245 129.947 169.202 129.937 169.158 129.926C169.202 129.937 169.245 129.947 169.288 129.959ZM168.143 129.726C168.297 129.75 168.444 129.776 168.586 129.803C168.444 129.776 168.297 129.75 168.143 129.726ZM165.695 129.488C165.474 129.476 165.246 129.465 165.011 129.456C165.246 129.465 165.474 129.476 165.695 129.488ZM204.622 84.0799C209.512 84.0799 213.215 85.2484 215.696 87.6202C218.177 89.9435 219.403 93.3658 219.403 97.8521V115.583C219.403 116.712 219.475 117.866 219.62 119.046C219.765 120.226 219.983 121.481 220.273 122.811L220.326 123.05H212.568L212.53 122.903C212.284 121.951 212.112 120.901 212.014 119.754L212.013 119.746C211.986 119.123 211.968 118.426 211.956 117.656C211.039 119.303 209.772 120.647 208.154 121.684L208.151 121.686C205.878 123.093 203.118 123.792 199.882 123.792C196.058 123.792 192.994 122.844 190.713 120.928L190.712 120.926C188.427 118.956 187.288 116.302 187.288 112.987C187.288 109.572 188.477 106.867 190.861 104.896C193.279 102.888 196.72 101.544 201.163 100.849L211.576 99.1461V97.5555C211.576 95.163 210.976 93.4182 209.812 92.2815L209.806 92.2757C208.691 91.0947 206.882 90.4819 204.33 90.4819C201.874 90.4819 199.921 90.9717 198.455 91.9338C197.046 92.8902 196.225 94.2481 195.989 96.0237L195.967 96.1937H188.363L188.384 95.979C188.729 92.3633 190.337 89.469 193.201 87.309C196.065 85.1496 199.878 84.0799 204.622 84.0799ZM283.864 84.0799C288.753 84.0799 292.456 85.2479 294.936 87.6189L295.165 87.84C297.494 90.1573 298.645 93.5053 298.645 97.8521V115.583C298.645 116.712 298.717 117.866 298.862 119.046C299.007 120.226 299.225 121.481 299.516 122.811L299.568 123.05H291.81L291.772 122.903C291.526 121.951 291.354 120.901 291.256 119.754L291.255 119.746C291.229 119.123 291.21 118.426 291.198 117.656C290.281 119.303 289.013 120.647 287.396 121.684L287.393 121.686C285.12 123.093 282.36 123.792 279.123 123.792C275.299 123.792 272.236 122.844 269.955 120.928L269.953 120.926C267.669 118.956 266.53 116.302 266.53 112.987C266.53 109.572 267.718 106.867 270.102 104.896C272.521 102.888 275.962 101.544 280.405 100.849L290.818 99.1461V97.5555C290.818 95.1629 290.218 93.4182 289.054 92.2815L289.048 92.2757C287.933 91.0944 286.124 90.4819 283.572 90.4819C281.116 90.4819 279.163 90.9717 277.697 91.9338C276.288 92.8902 275.467 94.2482 275.232 96.0237L275.209 96.1937H267.605L267.625 95.979C267.971 92.3633 269.579 89.469 272.443 87.309C275.307 85.1497 279.12 84.0799 283.864 84.0799ZM364.555 84.0799C368.181 84.0799 371.329 84.8777 373.99 86.4814C376.695 88.0329 378.761 90.2107 380.188 93.0119L380.324 93.2765C381.709 96.0238 382.399 99.2576 382.399 102.972C382.399 103.564 382.374 104.133 382.326 104.678L382.317 105.062C382.298 105.452 382.251 105.855 382.177 106.27L382.148 106.432H353.649C353.977 109.487 354.918 111.947 356.461 113.824L356.65 114.042C358.634 116.27 361.334 117.39 364.773 117.39C366.935 117.39 368.798 116.95 370.369 116.078C371.935 115.161 373.097 113.834 373.858 112.091L373.91 111.974H381.456L381.367 112.235C380.139 115.833 378.047 118.661 375.094 120.714L375.095 120.715C372.189 122.769 368.696 123.792 364.627 123.792C360.854 123.792 357.513 122.944 354.611 121.243L354.61 121.242C351.759 119.542 349.522 117.192 347.901 114.194C346.279 111.194 345.471 107.748 345.471 103.862C345.471 99.9278 346.254 96.4815 347.828 93.5302L347.829 93.5295C349.45 90.5303 351.713 88.2034 354.614 86.553C357.515 84.9025 360.83 84.0799 364.555 84.0799ZM201.476 123.534C201.529 123.53 201.582 123.527 201.635 123.523C201.687 123.518 201.739 123.512 201.79 123.507C201.686 123.517 201.581 123.526 201.476 123.534ZM366.319 123.532C366.493 123.519 366.665 123.505 366.836 123.488C366.665 123.505 366.493 123.519 366.319 123.532ZM235.076 90.8666C236.213 89.1419 237.669 87.7053 239.446 86.5587C242.009 84.9042 244.988 84.0799 248.375 84.0799C252.4 84.0799 255.59 85.2291 257.92 87.5486C260.248 89.8665 261.406 92.9371 261.406 96.7395V123.05H253.505V98.5199C253.505 96.0101 252.897 94.1549 251.711 92.9179L251.593 92.7978C250.378 91.5619 248.539 90.9267 246.041 90.9267C243.883 90.9267 241.972 91.4142 240.303 92.3843C238.681 93.3555 237.392 94.6899 236.437 96.3912C235.532 98.0875 235.076 100.106 235.076 102.452V123.05H227.103V69.2423H235.076V90.8666ZM327.617 84.0799C331.642 84.0799 334.832 85.2292 337.162 87.5486C339.49 89.8665 340.648 92.9371 340.648 96.7395V123.05H332.748V98.5199C332.748 96.0101 332.138 94.1549 330.953 92.9179L330.835 92.7978C329.62 91.562 327.782 90.9267 325.284 90.9267C323.126 90.9267 321.216 91.4131 319.547 92.3824L319.548 92.3831C317.925 93.3537 316.636 94.6871 315.68 96.3874C314.775 98.0844 314.319 100.104 314.319 102.452V123.05H306.345V84.8218H313.954V91.4488C315.137 89.4628 316.716 87.8319 318.688 86.5587C321.251 84.9042 324.23 84.0799 327.617 84.0799ZM371.511 122.407C371.407 122.447 371.303 122.486 371.199 122.523C371.408 122.448 371.615 122.369 371.819 122.286L371.511 122.407ZM179.963 120.702C180.043 120.644 180.121 120.585 180.198 120.525L180.205 120.519C180.126 120.581 180.045 120.642 179.963 120.702ZM156.256 119.256C156.408 119.406 156.564 119.553 156.725 119.696C156.759 119.727 156.794 119.756 156.829 119.786C156.631 119.614 156.44 119.438 156.256 119.256ZM156.016 119.014C156.088 119.088 156.161 119.162 156.235 119.235C156.147 119.149 156.062 119.06 155.977 118.971C155.99 118.985 156.003 119 156.016 119.014ZM202.391 106.429C199.926 106.823 198.089 107.484 196.86 108.397C195.702 109.294 195.116 110.591 195.116 112.319C195.116 114.001 195.656 115.248 196.715 116.093C197.836 116.899 199.466 117.316 201.632 117.316C204.517 117.316 206.881 116.607 208.736 115.204L208.738 115.202C210.58 113.843 211.516 112.159 211.573 110.141L211.576 109.945V104.954L202.391 106.429ZM281.633 106.429C279.168 106.823 277.33 107.484 276.102 108.397C274.944 109.294 274.358 110.591 274.358 112.319C274.358 113.999 274.897 115.245 275.954 116.091L276.17 116.238C277.281 116.949 278.842 117.316 280.874 117.316C283.759 117.316 286.123 116.607 287.978 115.204L287.98 115.202C289.822 113.843 290.759 112.159 290.815 110.141L290.818 109.945V104.954L281.633 106.429ZM360.497 116.891C360.68 116.957 360.865 117.018 361.054 117.075L360.773 116.986C360.681 116.955 360.589 116.924 360.497 116.891ZM174.301 116.916C174.338 116.897 174.375 116.88 174.411 116.861L174.428 116.851C174.387 116.873 174.344 116.894 174.301 116.916ZM219.222 116.441C219.225 116.529 219.229 116.617 219.233 116.706C219.229 116.6 219.224 116.493 219.221 116.387L219.222 116.441ZM183.886 113.321C183.876 113.524 183.86 113.724 183.841 113.922C183.851 113.821 183.86 113.72 183.868 113.619L183.886 113.321ZM176.845 113.538C176.853 113.479 176.863 113.419 176.869 113.359L176.871 113.341C176.864 113.407 176.854 113.473 176.845 113.538ZM274.19 112.948C274.192 112.975 274.196 113.001 274.199 113.027C274.196 112.995 274.192 112.962 274.189 112.929L274.19 112.948ZM201.46 106.397C201.386 106.412 201.313 106.428 201.24 106.443C201.322 106.426 201.404 106.408 201.487 106.392L201.46 106.397ZM280.702 106.397C280.628 106.412 280.555 106.428 280.482 106.443C280.563 106.426 280.646 106.408 280.729 106.392L280.702 106.397ZM181.53 105.87C181.603 105.958 181.674 106.047 181.744 106.137C181.624 105.983 181.5 105.83 181.369 105.68L181.53 105.87ZM191.924 104.337C191.91 104.346 191.896 104.357 191.881 104.367C191.932 104.331 191.984 104.297 192.035 104.262C191.998 104.287 191.961 104.311 191.924 104.337ZM192.431 104.004C192.401 104.022 192.371 104.042 192.342 104.06C192.448 103.993 192.556 103.927 192.664 103.862C192.586 103.909 192.508 103.955 192.431 104.004ZM196.307 102.205C196.082 102.281 195.862 102.359 195.645 102.44L195.973 102.32C196.083 102.281 196.195 102.243 196.307 102.205ZM364.555 90.4819C361.259 90.4819 358.631 91.5994 356.65 93.8286L356.461 94.0478C355.105 95.6628 354.213 97.728 353.794 100.252H374.444C374.14 97.4392 373.294 95.2277 371.92 93.603C370.163 91.5271 367.717 90.4819 364.555 90.4819ZM290.15 93.4343C290.202 93.5326 290.252 93.6335 290.299 93.7366C290.394 93.9427 290.48 94.1585 290.556 94.3839C290.594 94.4968 290.629 94.612 290.662 94.7297H290.663C290.53 94.2592 290.359 93.8275 290.15 93.4343ZM161.246 94.065C161.239 94.1366 161.233 94.209 161.229 94.2823C161.233 94.2092 161.239 94.137 161.246 94.0657V94.065ZM355.951 94.3763C355.938 94.394 355.925 94.4121 355.912 94.4299C355.983 94.3339 356.055 94.2388 356.129 94.1456L355.951 94.3763ZM318.845 92.6023C318.676 92.7187 318.511 92.8399 318.351 92.9652C318.605 92.7674 318.869 92.5803 319.143 92.4041L318.845 92.6023ZM199.249 91.2647C199.16 91.3067 199.074 91.3511 198.988 91.3957C199.081 91.3473 199.175 91.3 199.271 91.2545L199.249 91.2647ZM244.184 90.8583C243.759 90.9184 243.345 90.999 242.941 91.1018C243.306 91.009 243.679 90.9335 244.061 90.8755C244.102 90.8694 244.143 90.8641 244.184 90.8583ZM287.417 90.9394C287.525 90.9854 287.632 91.0331 287.735 91.0839L287.578 91.0097C287.525 90.9855 287.471 90.9624 287.417 90.9394ZM244.836 90.7822C244.81 90.7845 244.784 90.7874 244.758 90.7899C244.798 90.7861 244.839 90.7825 244.879 90.779L244.836 90.7822ZM179.284 87.624C179.389 87.7107 179.492 87.7992 179.594 87.8886C179.417 87.7321 179.234 87.579 179.044 87.431L179.284 87.624ZM354.175 87.0393C354.176 87.0388 354.177 87.0385 354.178 87.038L354.186 87.0329C354.182 87.0351 354.179 87.0371 354.175 87.0393ZM174.198 19.3388C178.282 19.3388 181.814 20.2321 184.794 22.0189C187.83 23.75 190.148 26.179 191.748 29.3061C193.404 32.4332 194.232 36.1469 194.232 40.4467C194.232 41.1166 194.204 41.7586 194.149 42.3728C194.149 42.9312 194.094 43.5178 193.983 44.1321H161.576C161.927 47.7284 163.016 50.632 164.844 52.843C167.162 55.5792 170.363 56.9476 174.447 56.9476C176.93 56.9476 179.083 56.4452 180.904 55.4401C182.725 54.3791 184.077 52.8434 184.96 50.8332H193.073C191.693 54.8537 189.347 58.0087 186.036 60.2982C182.78 62.5875 178.862 63.7324 174.281 63.7324C170.032 63.7324 166.279 62.7828 163.022 60.8842C159.822 58.9856 157.311 56.3608 155.49 53.0104C153.669 49.6601 152.758 45.8073 152.758 41.4519C152.758 37.0405 153.641 33.1873 155.407 29.8927C157.228 26.5423 159.766 23.9454 163.022 22.1027C166.279 20.2599 170.004 19.3388 174.198 19.3388ZM215.593 53.3351L227.484 20.1766H236.342L219.206 62.8946H211.59L194.372 20.1766H203.56L215.593 53.3351ZM248.88 62.8946H240.271V20.1759H248.88V62.8946ZM309.974 19.3388C314.224 19.3388 317.618 20.5951 320.156 23.1079C322.695 25.5649 323.964 28.8594 323.964 32.9915V62.8946H315.438V35.0019C315.438 32.0982 314.748 29.9759 313.368 28.6357C312.044 27.2956 310.14 26.6259 307.656 26.6259C305.394 26.6259 303.324 27.184 301.447 28.3008C299.626 29.3618 298.164 30.8697 297.06 32.824C296.012 34.7226 295.487 36.9843 295.487 39.6089V62.8946H286.961V35.0019C286.961 32.0982 286.298 29.9759 284.974 28.6357C283.649 27.2956 281.745 26.6259 279.262 26.6259C276.944 26.6259 274.847 27.1841 272.97 28.3008C271.149 29.3618 269.714 30.8696 268.666 32.824C267.617 34.7226 267.093 36.9843 267.093 39.6089V62.8946H258.483V20.1759H266.679V28.265C268.028 25.7255 269.876 23.6712 272.225 22.1027C275.04 20.2599 278.185 19.3388 281.662 19.3388C285.857 19.3388 289.196 20.5672 291.679 23.0242C293.074 24.3743 294.084 25.961 294.713 27.7832C296.088 25.4644 297.919 23.5708 300.205 22.1027C303.13 20.2599 306.387 19.3388 309.974 19.3388ZM341.49 62.8946H332.881V20.1759H341.49V62.8946ZM381.338 26.291L359.024 55.9424H382V62.8946H348.059V56.7802L370.334 27.1282H348.804V20.1766H381.338V26.291ZM174.198 26.1229C170.28 26.123 167.162 27.4914 164.844 30.2276C163.227 32.1428 162.189 34.5998 161.727 37.5984H185.667C185.342 34.2742 184.362 31.6494 182.725 29.7246C180.683 27.3235 177.841 26.1229 174.198 26.1229ZM249.377 11.7999H239.857V2H249.377V11.7999ZM341.987 11.7999H332.467V2H341.987V11.7999ZM169.696 130.079C169.628 130.057 169.558 130.035 169.485 130.014C169.558 130.035 169.628 130.057 169.696 130.079Z" fill="black"/>
</svg>
